<mxfile host="app.diagrams.net" modified="2024-03-11T13:02:14.320Z" agent="Mozilla/5.0 (Macintosh; Intel Mac OS X 10_15_7) AppleWebKit/537.36 (KHTML, like Gecko) Chrome/122.0.0.0 Safari/537.36" version="24.0.3" etag="ErVM6ZMLiCayHzkXH-ZD" type="github">
  <diagram name="第 1 页" id="1U0o93NMa1Fug06uQ7Ba">
    <mxGraphModel>
      <root>
        <mxCell id="0" />
        <mxCell id="1" parent="0" />
      </root>
    </mxGraphModel>
  </diagram>
</mxfile>
